<svg width="32" height="32" viewBox="0 0 32 32" fill="none" xmlns="http://www.w3.org/2000/svg">
<path d="M16 32C24.8366 32 32 24.8366 32 16C32 7.16344 24.8366 0 16 0C7.16344 0 0 7.16344 0 16C0 24.8366 7.16344 32 16 32Z" fill="url(#paint0_linear_2576_5023)"/>
<path d="M19.6085 15.41C21.8927 17.6453 23.0499 19.3505 22.4655 22.1C21.7946 25.2565 18.6185 26.876 14.2794 25.9537C9.78412 24.9982 8.21412 21.8111 8.61073 19.9452C8.96824 18.2633 14.3178 18.436 13.9642 19.4862C12.8204 21.4387 13.2364 23.4909 15.0967 23.883C16.4559 24.1696 17.3513 23.3549 17.6615 21.9575C18.1385 19.8084 16.7346 18.9314 13.9757 16.1702C11.4165 13.6088 10.3401 11.8091 10.8649 9.34002C11.5758 5.99561 14.9697 4.63124 18.9966 5.48716C22.4586 6.22304 25.1882 8.61164 24.7119 11.0137C24.3706 12.7344 19.0067 12.766 19.5537 11.5351C20.4019 9.95077 20.6139 7.84726 18.5097 7.42925C17.1327 7.15583 16.0331 7.98267 15.7639 9.31452C15.2908 11.654 17.228 13.081 19.6085 15.41Z" fill="white"/>
<path d="M17.5951 3.33904L16.3612 3.07678C16.1617 3.03438 15.9686 3.14762 15.9299 3.32972L15.2384 6.58287C15.1997 6.76497 15.3301 6.94697 15.5296 6.98937L16.7634 7.25163C16.9629 7.29404 17.156 7.18079 17.1947 6.99869L17.8862 3.74555C17.9249 3.56345 17.7946 3.38145 17.5951 3.33904Z" fill="white"/>
<path d="M21.5951 4.33904L20.3612 4.07678C20.1617 4.03438 19.9686 4.14762 19.9299 4.32972L19.2384 7.58287C19.1997 7.76497 19.3301 7.94697 19.5296 7.98937L20.7634 8.25163C20.9629 8.29404 21.156 8.18079 21.1947 7.99869L21.8862 4.74555C21.9249 4.56345 21.7946 4.38145 21.5951 4.33904Z" fill="white"/>
<path d="M12.5679 23.3333L11.3884 23.0826C11.1739 23.037 10.9588 23.194 10.9079 23.4333L10.2605 26.4793C10.2096 26.7186 10.3423 26.9496 10.5568 26.9952L11.7362 27.2459C11.9507 27.2915 12.1659 27.1344 12.2168 26.8951L12.8642 23.8491C12.9151 23.6098 12.7824 23.3789 12.5679 23.3333Z" fill="white"/>
<path d="M17.5679 24.3333L16.3884 24.0826C16.1739 24.037 15.9588 24.194 15.9079 24.4333L15.2605 27.4793C15.2096 27.7186 15.3423 27.9496 15.5568 27.9952L16.7362 28.2459C16.9507 28.2914 17.1659 28.1344 17.2168 27.8951L17.8642 24.8491C17.9151 24.6098 17.7824 24.3789 17.5679 24.3333Z" fill="white"/>
<defs>
<linearGradient id="paint0_linear_2576_5023" x1="16" y1="0" x2="16" y2="32" gradientUnits="userSpaceOnUse">
<stop stop-color="#383AB5"/>
<stop offset="1" stop-color="#2C1D6A"/>
</linearGradient>
</defs>
</svg>
