<svg width="32" height="32" viewBox="0 0 32 32" fill="none" xmlns="http://www.w3.org/2000/svg">
<path d="M9.67866 13.9947L16 7.52875L22.3239 14L26 10.2356L16 0L6 10.233L9.67866 13.9947Z" fill="#F3BA2F"/>
<path d="M0 16.0014L3.9986 12L8 16.0014L3.9986 20L0 16.0014Z" fill="#F3BA2F"/>
<path d="M9.67819 18.0026L15.9987 24.4737L22.3218 18L26 21.7605L16.0013 32L6 21.7684L9.67819 18.0026Z" fill="#F3BA2F"/>
<path d="M24 16L27.9986 12L32 15.9972L27.9986 20L24 16Z" fill="#F3BA2F"/>
<path d="M20 16.0055L16 12L13.042 14.96L12.7002 15.2993L12 16L16 20L20 16.0083V16.0055Z" fill="#F3BA2F"/>
</svg>
