<svg width="32" height="32" viewBox="0 0 32 32" fill="none" xmlns="http://www.w3.org/2000/svg">
<path d="M16 32C24.8366 32 32 24.8366 32 16C32 7.16344 24.8366 0 16 0C7.16344 0 0 7.16344 0 16C0 24.8366 7.16344 32 16 32Z" fill="#627EEA"/>
<path d="M16.8164 4.10156V13.0492L24.1981 16.4286L16.8164 4.10156Z" fill="white" fill-opacity="0.602"/>
<path d="M16.8162 4.10156L9.43359 16.4286L16.8162 13.0492V4.10156Z" fill="white"/>
<path d="M16.8164 22.228V28.3078L24.203 17.8379L16.8164 22.228Z" fill="white" fill-opacity="0.602"/>
<path d="M16.8162 28.3073V22.2265L9.43359 17.8374L16.8162 28.3073Z" fill="white"/>
<path d="M16.8164 20.8192L24.1981 16.4281L16.8164 13.0508V20.8192Z" fill="white" fill-opacity="0.2"/>
<path d="M9.43359 16.4283L16.8162 20.8195V13.051L9.43359 16.4283Z" fill="white" fill-opacity="0.602"/>
</svg>
