<?xml version="1.0" standalone="no"?>
<!DOCTYPE svg PUBLIC "-//W3C//DTD SVG 20010904//EN"
 "http://www.w3.org/TR/2001/REC-SVG-20010904/DTD/svg10.dtd">
<svg version="1.0" xmlns="http://www.w3.org/2000/svg"
 width="353.000000pt" height="71.000000pt" viewBox="0 0 353.000000 71.000000"
 preserveAspectRatio="xMidYMid meet">

<g transform="translate(0.000000,71.000000) scale(0.100000,-0.100000)"
fill="#000000" stroke="none">
<path d="M226 615 c-77 -27 -120 -99 -102 -169 10 -40 60 -90 136 -135 39 -23
77 -53 86 -66 23 -35 15 -86 -17 -104 -24 -13 -29 -13 -53 2 -22 15 -26 25
-26 62 0 44 -1 45 -31 45 -17 0 -46 -7 -65 -16 -42 -20 -45 -50 -7 -95 36 -43
79 -59 158 -59 118 0 175 48 175 149 0 42 -5 56 -31 85 -17 20 -56 51 -87 70
-108 66 -143 126 -98 171 31 30 50 31 77 4 15 -15 20 -30 17 -57 -3 -37 -3
-37 34 -36 49 2 88 28 88 58 0 76 -148 129 -254 91z"/>
<path d="M530 376 l0 -255 26 -20 c32 -25 109 -28 142 -6 19 14 24 14 46 -1
19 -12 38 -14 78 -10 67 8 92 8 149 0 29 -3 55 -1 69 6 18 9 24 9 34 -5 9 -12
24 -15 61 -13 l50 3 5 145 c5 138 6 145 26 148 36 5 43 -18 46 -159 l3 -134
50 0 50 0 5 139 c4 113 8 141 21 149 9 6 24 7 33 4 13 -5 16 -23 16 -112 0
-129 12 -159 70 -175 32 -9 49 -7 93 8 49 16 56 17 77 3 31 -20 125 -19 166 2
29 15 33 15 74 -5 39 -19 48 -20 99 -10 41 8 63 20 84 42 26 29 27 34 27 140
0 128 11 150 77 150 l36 0 -21 -23 c-50 -53 -68 -169 -38 -242 22 -51 55 -68
118 -61 66 8 80 8 146 0 32 -4 64 -1 81 6 24 9 35 9 61 -5 36 -19 89 -14 128
11 20 13 25 13 44 -1 31 -21 106 -19 143 4 30 18 32 18 65 0 53 -29 163 -26
225 5 l48 25 31 -26 c26 -22 37 -25 84 -21 41 4 60 11 80 31 21 21 24 29 14
39 -9 9 -15 9 -24 0 -17 -17 -55 -15 -62 4 -3 9 -6 69 -6 135 l0 119 30 0 c20
0 30 5 30 15 0 10 -10 15 -30 15 l-30 0 0 74 c0 86 -10 99 -73 100 l-42 1 -5
-215 -5 -214 -34 -23 c-44 -30 -139 -33 -164 -5 -25 28 -21 38 16 34 46 -5
107 18 130 50 24 32 28 104 8 141 -38 70 -184 71 -252 1 -34 -35 -34 -36 -35
-137 -2 -98 -3 -102 -24 -105 -13 -2 -27 2 -31 10 -5 7 -9 111 -9 231 l0 218
-35 15 c-19 7 -44 14 -55 14 -20 0 -20 -5 -20 -240 0 -232 -1 -240 -21 -250
-15 -9 -24 -8 -35 1 -11 9 -14 52 -14 230 0 216 0 219 -23 233 -12 9 -38 17
-57 18 l-35 3 -3 -240 c-2 -248 -5 -265 -44 -244 -16 8 -18 24 -18 119 l0 110
-34 0 c-19 0 -45 -9 -60 -21 -25 -19 -26 -25 -26 -115 0 -93 0 -94 -25 -94
-33 0 -45 27 -45 105 0 86 19 132 64 150 20 8 45 15 57 15 12 0 19 5 17 13 -4
9 -51 13 -182 15 l-177 2 -30 -29 c-29 -29 -29 -30 -29 -145 0 -107 -1 -115
-20 -121 -43 -14 -50 8 -50 157 l0 139 -57 -3 -58 -3 -3 -142 c-2 -132 -4
-142 -23 -148 -42 -14 -49 8 -49 157 l0 139 -57 -3 -58 -3 -3 -147 c-3 -156
-8 -171 -53 -148 -17 10 -19 22 -19 125 0 104 -2 116 -23 140 -30 35 -89 43
-138 18 -34 -18 -36 -18 -65 -1 -35 22 -64 23 -109 4 -31 -13 -39 -13 -70 0
-19 7 -46 14 -60 14 l-25 0 0 -145 c0 -128 -2 -145 -18 -154 -11 -6 -24 -6
-35 0 -14 9 -17 26 -17 119 l0 110 -35 0 c-25 0 -44 -8 -60 -25 -23 -22 -25
-32 -25 -115 0 -89 0 -90 -25 -90 -33 0 -45 27 -45 105 0 86 19 132 64 150 20
8 45 15 57 15 30 0 18 24 -14 28 -15 2 -53 -2 -84 -8 -104 -22 -151 -99 -139
-228 l5 -63 -27 3 -27 3 -3 228 -2 228 -35 15 c-19 8 -44 14 -55 14 -20 0 -20
-5 -20 -254z m2558 -44 c3 -84 -6 -102 -50 -102 l-30 0 7 73 c9 87 19 109 48
105 20 -3 22 -10 25 -76z"/>
</g>
</svg>
