<?xml version="1.0" encoding="UTF-8"?>
<svg width="85px" height="85px" viewBox="0 0 85 85" version="1.1" xmlns="http://www.w3.org/2000/svg" xmlns:xlink="http://www.w3.org/1999/xlink">
    <title>A31F97FA-E16C-42B3-915F-5C4FADD8B38B</title>
    <g id="Web-/-Under-Construction" stroke="none" stroke-width="1" fill="none" fill-rule="evenodd">
        <g id="Wallet" transform="translate(-1022.000000, -1176.000000)" fill="#F3BA2F" fill-rule="nonzero">
            <g id="binance-logo-BNB" transform="translate(1022.000000, 1176.000000)">
                <polygon id="Path" points="26.5645244 35.9864713 43 19.3596392 59.4421594 36 69 26.3201804 43 0 17 26.313416"></polygon>
                <polygon id="Path" points="0 43.0034953 9.99650472 33 20 43.0034953 9.99650472 53"></polygon>
                <polygon id="Path" points="26.5632952 49.0067669 42.9966585 65.6466165 59.4367048 49 69 58.6699248 43.0033415 85 17 58.6902256"></polygon>
                <polygon id="Path" points="65 43 74.9965047 33 85 42.9930119 74.9965047 53"></polygon>
                <polygon id="Path" points="53 43.0137931 43 33 35.6050999 40.4 34.7505169 41.2482759 33 43 43 53 53 43.0206897"></polygon>
            </g>
        </g>
    </g>
</svg>