<?xml version="1.0" encoding="UTF-8"?>
<svg width="78px" height="78px" viewBox="0 0 78 78" version="1.1" xmlns="http://www.w3.org/2000/svg" xmlns:xlink="http://www.w3.org/1999/xlink">
    <title>1362B1C1-DC2D-46E6-94A4-95AF33E8C147</title>
    <g id="Web-/-Under-Construction" stroke="none" stroke-width="1" fill="none" fill-rule="evenodd">
        <g id="Wallet" transform="translate(-1554.000000, -1178.000000)" fill-rule="nonzero">
            <g id="bitcoin" transform="translate(1554.000000, 1178.000000)">
                <path d="M76.8338626,48.4348259 C71.6243388,69.327752 50.459582,82.041688 29.5617616,76.8327767 C8.67369216,71.6238654 -4.04295766,50.4615969 1.16778498,29.5698896 C6.37487096,8.67452606 27.5384089,-4.04184742 48.4301349,1.16706385 C69.3267365,6.37597513 82.0421674,27.5406811 76.8326437,48.4348259 L76.8338626,48.4348259 Z" id="Path" fill="#F7931A"></path>
                <path d="M55.9035835,33.6979395 C56.6722319,28.5494633 52.7540588,25.7817643 47.3964827,23.9354226 L49.1344016,16.9611598 L44.8899154,15.9031709 L43.197922,22.6936459 C42.0836236,22.415546 40.9379023,22.1531647 39.7994325,21.8932017 L41.5035115,15.0579889 L37.2626511,14 L35.5235236,20.9718445 C34.6001787,20.7614559 33.6937537,20.5534855 32.8139171,20.3346329 L32.8187514,20.3128686 L26.9668715,18.8510302 L25.8380703,23.3852684 C25.8380703,23.3852684 28.9863865,24.1071191 28.9199153,24.1518569 C30.6384971,24.5810981 30.9503073,25.7188896 30.8971304,26.6209007 L28.9174982,34.566095 C29.0359377,34.5963233 29.1894257,34.6398519 29.358625,34.7075632 L28.9114553,34.5963233 L26.1353777,45.7263664 C25.9250871,46.2487107 25.3921092,47.032227 24.1907939,46.734781 C24.2330937,46.7964466 21.1065317,45.9645651 21.1065317,45.9645651 L19,50.8252684 L24.5231497,52.2024676 C25.5504314,52.4600123 26.5571674,52.7296484 27.5469835,52.9835657 L25.7909362,60.0388402 L30.0293795,61.0968291 L31.7697155,54.1177298 C32.9263138,54.4321036 34.0502808,54.7222949 35.1500765,54.9955583 L33.4169919,61.9420111 L37.6602695,63 L39.4163169,55.959235 C46.6520056,57.3291795 52.0941813,56.776607 54.3819981,50.2303763 C56.2274794,44.9585688 54.2913556,41.9176064 50.4843705,39.9334238 C53.2568225,39.2913757 55.3452257,37.4667983 55.902375,33.6979395 L55.9035835,33.6979395 Z M46.2072531,47.2994448 C44.8947496,52.5712523 36.0238702,49.7225416 33.146273,49.0067366 L35.4763895,39.6613695 C38.3527782,40.3795928 47.5753505,41.8015299 46.2084616,47.2994448 L46.2072531,47.2994448 Z M47.5185479,33.6217643 C46.3220669,38.4171746 38.9377245,35.9807773 36.5411368,35.383467 L38.6537113,26.9074645 C41.050299,27.5047748 48.7657887,28.6195928 47.5185479,33.6217643 L47.5185479,33.6217643 Z" id="Shape" fill="#FFFFFF"></path>
            </g>
        </g>
    </g>
</svg>