<svg width="30" height="30" viewBox="0 0 30 30" fill="none" xmlns="http://www.w3.org/2000/svg">
<path d="M26 0H4C1.79086 0 0 1.79086 0 4V26C0 28.2091 1.79086 30 4 30H26C28.2091 30 30 28.2091 30 26V4C30 1.79086 28.2091 0 26 0Z" fill="#E7E9ED"/>
<path d="M25 11.5C25 15.09 22.09 18 18.5 18C18.33 18 18.15 17.99 17.98 17.98C17.73 14.81 15.19 12.27 12.02 12.02C12.01 11.85 12 11.67 12 11.5C12 7.91 14.91 5 18.5 5C22.09 5 25 7.91 25 11.5Z" stroke="#A9ADBD" stroke-width="1.5" stroke-linecap="round" stroke-linejoin="round"/>
<path d="M18 18.5C18 22.09 15.09 25 11.5 25C7.91 25 5 22.09 5 18.5C5 14.91 7.91 12 11.5 12C11.67 12 11.85 12.01 12.02 12.02C15.19 12.27 17.73 14.81 17.98 17.98C17.99 18.15 18 18.33 18 18.5Z" stroke="#A9ADBD" stroke-width="1.5" stroke-linecap="round" stroke-linejoin="round"/>
<path d="M10.62 17.62L11.5 16L12.38 17.62L14 18.5L12.38 19.38L11.5 21L10.62 19.38L9 18.5L10.62 17.62Z" stroke="#A9ADBD" stroke-width="1.5" stroke-linecap="round" stroke-linejoin="round"/>
</svg>
