<svg width="30" height="30" viewBox="0 0 30 30" fill="none" xmlns="http://www.w3.org/2000/svg">
<path d="M26 0H4C1.79086 0 0 1.79086 0 4V26C0 28.2091 1.79086 30 4 30H26C28.2091 30 30 28.2091 30 26V4C30 1.79086 28.2091 0 26 0Z" fill="#E7E9ED"/>
<path d="M21.32 15.0002C23.92 15.0002 25 14.0002 24.04 10.7202C23.39 8.51018 21.49 6.61018 19.28 5.96018C16 5.00018 15 6.08018 15 8.68018V11.5602C15 14.0002 16 15.0002 18 15.0002H21.32Z" stroke="#A9ADBD" stroke-width="1.5" stroke-linecap="round" stroke-linejoin="round"/>
<path d="M22.9994 17.7017C22.0694 22.3317 17.6294 25.6917 12.5794 24.8717C8.78944 24.2617 5.73944 21.2117 5.11944 17.4217C4.30944 12.3917 7.64944 7.95172 12.2594 7.01172" stroke="#A9ADBD" stroke-width="1.5" stroke-linecap="round" stroke-linejoin="round"/>
</svg>
