<svg width="24" height="25" viewBox="0 0 24 25" fill="none" xmlns="http://www.w3.org/2000/svg">
<path d="M12 22.2224C17.5228 22.2224 22 17.7453 22 12.2224C22 6.69956 17.5228 2.22241 12 2.22241C6.47715 2.22241 2 6.69956 2 12.2224C2 17.7453 6.47715 22.2224 12 22.2224Z" stroke="#A8ABC1" stroke-width="1.5" stroke-linecap="round" stroke-linejoin="round"/>
<path d="M8.00156 3.22241H9.00156C7.05156 9.06241 7.05156 15.3824 9.00156 21.2224H8.00156" stroke="#A8ABC1" stroke-width="1.5" stroke-linecap="round" stroke-linejoin="round"/>
<path d="M15 3.22241C16.95 9.06241 16.95 15.3824 15 21.2224" stroke="#A8ABC1" stroke-width="1.5" stroke-linecap="round" stroke-linejoin="round"/>
<path d="M3 16.2224V15.2224C8.84 17.1724 15.16 17.1724 21 15.2224V16.2224" stroke="#A8ABC1" stroke-width="1.5" stroke-linecap="round" stroke-linejoin="round"/>
<path d="M3 9.22239C8.84 7.27239 15.16 7.27239 21 9.22239" stroke="#A8ABC1" stroke-width="1.5" stroke-linecap="round" stroke-linejoin="round"/>
</svg>
