<svg width="30" height="30" viewBox="0 0 30 30" fill="none" xmlns="http://www.w3.org/2000/svg">
<path d="M26 0H4C1.79086 0 0 1.79086 0 4V26C0 28.2091 1.79086 30 4 30H26C28.2091 30 30 28.2091 30 26V4C30 1.79086 28.2091 0 26 0Z" fill="#1D2333"/>
<path d="M6.27 15C5.48 14.05 5 12.83 5 11.5C5 8.48 7.47 6 10.5 6H15.5C18.52 6 21 8.48 21 11.5C21 14.52 18.53 17 15.5 17H13" stroke="#216AF5" stroke-width="1.5" stroke-linecap="round" stroke-linejoin="round"/>
<path d="M23.73 15C24.52 15.95 25 17.17 25 18.5C25 21.52 22.53 24 19.5 24H14.5C11.48 24 9 21.52 9 18.5C9 15.48 11.47 13 14.5 13H17" stroke="#216AF5" stroke-width="1.5" stroke-linecap="round" stroke-linejoin="round"/>
</svg>
