<svg width="30" height="30" viewBox="0 0 30 30" fill="none" xmlns="http://www.w3.org/2000/svg">
<path d="M4 30L26 30C28.2091 30 30 28.2091 30 26L30 4C30 1.79086 28.2091 0 26 0L4 0C1.79086 0 0 1.79086 0 4L0 26C0 28.2091 1.79086 30 4 30Z" fill="#E7E9ED"/>
<path d="M11.9004 10.5583C12.2104 6.95828 14.0604 5.48828 18.1104 5.48828H18.2404C22.7104 5.48828 24.5004 7.27828 24.5004 11.7483V18.2683C24.5004 22.7383 22.7104 24.5283 18.2404 24.5283H18.1104C14.0904 24.5283 12.2404 23.0783 11.9104 19.5383" stroke="#A9ADBD" stroke-width="1.5" stroke-linecap="round" stroke-linejoin="round"/>
<path d="M17.9991 15H6.61914" stroke="#A9ADBD" stroke-width="1.5" stroke-linecap="round" stroke-linejoin="round"/>
<path d="M8.85 11.6484L5.5 14.9984L8.85 18.3484" stroke="#A9ADBD" stroke-width="1.5" stroke-linecap="round" stroke-linejoin="round"/>
</svg>
