<?xml version="1.0" standalone="no"?>
<!DOCTYPE svg PUBLIC "-//W3C//DTD SVG 20010904//EN"
 "http://www.w3.org/TR/2001/REC-SVG-20010904/DTD/svg10.dtd">
<svg version="1.0" xmlns="http://www.w3.org/2000/svg"
 width="2034.000000pt" height="411.000000pt" viewBox="0 0 2034.000000 411.000000"
 preserveAspectRatio="xMidYMid meet">

<g transform="translate(0.000000,411.000000) scale(0.100000,-0.100000)"
fill="#ffffff" stroke="none">
<path d="M1507 3620 c-179 -28 -345 -88 -462 -166 -261 -172 -401 -461 -365
-751 27 -220 104 -370 274 -538 109 -108 202 -172 481 -335 402 -234 520 -330
595 -485 78 -161 55 -378 -53 -483 -61 -59 -126 -86 -212 -86 -167 0 -288 81
-331 221 -20 63 -20 225 0 328 15 76 15 81 -2 105 -27 36 -80 44 -197 30 -295
-34 -521 -146 -553 -272 -29 -116 54 -305 195 -443 148 -146 363 -242 627
-281 140 -21 451 -15 566 11 216 47 353 118 487 251 81 81 97 104 141 195 67
138 82 206 82 363 0 162 -19 256 -75 371 -99 202 -284 366 -689 610 -226 137
-319 205 -428 316 -108 110 -162 210 -179 334 -25 187 33 316 177 386 57 28
74 32 147 32 142 -1 236 -54 289 -162 32 -64 37 -226 12 -357 -17 -94 -17 -95
3 -116 58 -58 275 -35 485 50 190 77 263 174 238 315 -48 262 -317 472 -695
542 -104 20 -467 29 -558 15z"/>
<path d="M3042 3614 l-22 -15 0 -1348 c0 -924 3 -1366 11 -1407 34 -188 180
-332 385 -380 87 -20 307 -14 404 11 89 23 234 93 295 142 l51 40 56 -53 c111
-103 263 -154 458 -154 181 0 352 54 458 145 l42 37 45 -40 c140 -123 401
-175 611 -122 77 20 207 77 270 119 l31 21 6 -61 c10 -112 29 -118 368 -119
241 0 290 6 306 38 4 9 10 366 13 792 l5 775 23 33 c38 53 94 76 182 77 92 0
138 -24 169 -89 21 -42 21 -54 21 -804 l0 -761 24 -28 24 -28 275 0 c299 0
315 3 343 57 12 22 14 147 14 755 0 482 4 741 11 766 20 73 112 137 195 137
84 0 175 -60 194 -128 6 -23 10 -254 10 -613 0 -496 2 -583 16 -629 83 -279
451 -414 829 -305 123 36 220 78 297 128 l65 43 48 -43 c133 -117 377 -184
610 -169 260 18 504 102 601 208 l33 37 61 -64 c137 -142 380 -206 663 -176
394 43 649 215 712 482 12 53 15 157 15 595 0 455 2 538 16 584 30 101 99 180
199 227 58 27 65 28 255 31 177 2 193 1 175 -13 -143 -109 -221 -204 -291
-350 -107 -225 -149 -561 -109 -867 43 -325 159 -516 376 -618 104 -48 192
-63 349 -57 182 7 291 43 418 139 l53 40 45 -42 c167 -154 516 -185 809 -71
44 17 103 46 130 64 l50 34 50 -45 c111 -100 266 -148 454 -139 191 9 360 67
497 170 l60 46 58 -54 c104 -99 236 -145 418 -145 227 0 435 73 575 204 l57
53 60 -49 c170 -138 426 -208 765 -208 190 0 327 18 474 61 175 52 340 141
457 246 28 25 52 44 53 42 1 -2 15 -30 30 -63 32 -67 109 -152 176 -195 104
-66 261 -96 422 -81 212 21 368 88 511 219 l70 65 -4 53 c-5 52 -46 131 -73
140 -6 2 -35 -16 -65 -38 -141 -107 -266 -127 -347 -56 -66 58 -63 24 -63 807
l0 710 170 0 170 0 0 55 c0 60 -19 109 -45 119 -9 3 -69 6 -133 6 -64 0 -127
3 -139 6 l-22 6 -3 398 -3 398 -30 44 c-57 82 -197 154 -363 187 -70 14 -215
14 -247 -1 l-25 -11 0 -1209 0 -1209 -57 -60 c-137 -144 -306 -234 -528 -281
-90 -19 -365 -16 -442 5 -166 44 -258 140 -288 299 l-7 36 49 -11 c26 -5 138
-10 248 -10 174 -1 210 2 278 21 335 92 517 341 517 707 0 339 -150 549 -446
624 -170 42 -419 54 -580 26 -313 -55 -530 -206 -655 -454 -76 -153 -109 -345
-109 -640 0 -192 17 -312 62 -441 l30 -84 -28 -24 c-84 -68 -190 -90 -261 -53
-23 11 -52 35 -65 53 l-23 33 -5 1240 -5 1240 -27 47 c-49 82 -151 142 -312
183 -119 30 -277 35 -314 9 l-22 -15 0 -1359 0 -1358 -35 -31 c-120 -105 -263
-104 -333 2 l-27 41 -5 1241 -5 1242 -27 39 c-70 100 -216 168 -417 194 -91
12 -168 7 -203 -11 -17 -9 -18 -85 -18 -1385 l0 -1375 -53 -25 c-102 -46 -182
-42 -248 13 -61 52 -59 26 -59 682 0 670 6 620 -73 642 -85 24 -294 -20 -418
-87 -68 -37 -152 -130 -173 -190 -14 -41 -16 -111 -16 -520 l0 -472 -39 -35
c-59 -53 -137 -70 -208 -44 -72 27 -123 97 -155 212 -20 73 -22 103 -22 350
-1 360 19 499 95 663 46 101 140 200 236 250 84 44 225 79 356 88 l107 7 0 44
c0 63 -22 100 -68 113 -26 8 -315 10 -977 8 l-940 -3 -64 -23 c-164 -59 -285
-187 -327 -347 -11 -39 -14 -174 -14 -610 0 -378 -4 -573 -11 -600 -37 -133
-259 -182 -352 -77 -46 51 -46 54 -47 855 0 736 -1 758 -19 776 -30 30 -64 33
-338 29 l-253 -3 -32 -33 -33 -32 -5 -758 c-5 -740 -5 -758 -25 -792 -80 -135
-290 -129 -366 10 -11 20 -15 165 -17 791 l-3 766 -25 24 c-25 24 -27 24 -289
27 -217 2 -270 0 -300 -12 -68 -29 -66 5 -65 -879 l2 -792 -35 -22 c-137 -86
-301 -64 -356 49 -21 44 -21 54 -21 624 0 636 0 641 -61 754 -57 107 -187 210
-316 250 -229 71 -535 3 -715 -159 l-49 -44 -68 67 c-123 118 -283 173 -471
162 -52 -3 -122 -13 -155 -21 -89 -23 -212 -87 -276 -144 -56 -49 -57 -50 -63
-27 -9 36 -87 100 -152 124 -94 37 -250 65 -364 66 -115 1 -144 -8 -160 -50
-6 -15 -10 -344 -10 -829 l0 -803 -24 -15 c-12 -9 -52 -26 -87 -38 -110 -38
-202 -8 -246 81 l-23 44 0 598 0 598 -27 17 c-21 14 -46 18 -118 17 -218 -4
-430 -108 -499 -246 l-26 -52 0 -482 c0 -473 0 -482 -21 -508 -48 -61 -158
-91 -234 -62 -80 31 -130 109 -160 250 -18 90 -21 492 -4 643 49 439 237 629
657 666 l134 11 -5 50 c-7 76 -32 92 -151 101 -178 14 -446 -12 -624 -60 -173
-46 -296 -110 -400 -208 -291 -275 -391 -861 -237 -1383 6 -19 -2 -26 -56 -53
-102 -51 -206 -35 -260 40 l-24 34 -5 1240 -5 1240 -22 42 c-64 119 -288 212
-513 213 -71 0 -101 -4 -118 -16z m14688 -1269 c77 -40 104 -187 98 -530 -4
-193 -7 -228 -26 -287 -30 -91 -74 -146 -146 -182 -51 -27 -67 -30 -139 -29
-45 1 -95 6 -112 11 l-30 8 -3 140 c-5 192 15 500 38 614 32 156 87 244 168
271 37 12 114 4 152 -16z"/>
</g>
</svg>
