<svg width="30" height="30" viewBox="0 0 30 30" fill="none" xmlns="http://www.w3.org/2000/svg">
<path d="M4 30L26 30C28.2091 30 30 28.2091 30 26L30 4C30 1.79086 28.2091 0 26 0L4 0C1.79086 0 0 1.79086 0 4L0 26C0 28.2091 1.79086 30 4 30Z" fill="#1D2333"/>
<path d="M11.8999 10.5583C12.2099 6.95828 14.0599 5.48828 18.1099 5.48828H18.2399C22.7099 5.48828 24.4999 7.27828 24.4999 11.7483V18.2683C24.4999 22.7383 22.7099 24.5283 18.2399 24.5283H18.1099C14.0899 24.5283 12.2399 23.0783 11.9099 19.5383" stroke="#A8ABC1" stroke-width="1.5" stroke-linecap="round" stroke-linejoin="round"/>
<path d="M18.0001 15H6.62012" stroke="#A8ABC1" stroke-width="1.5" stroke-linecap="round" stroke-linejoin="round"/>
<path d="M8.85 11.6484L5.5 14.9984L8.85 18.3484" stroke="#A8ABC1" stroke-width="1.5" stroke-linecap="round" stroke-linejoin="round"/>
</svg>
