<?xml version="1.0" encoding="UTF-8"?>
<svg width="36px" height="31px" viewBox="0 0 36 31" version="1.1" xmlns="http://www.w3.org/2000/svg" xmlns:xlink="http://www.w3.org/1999/xlink">
    <title>896DE82A-BBCD-4306-BEB6-B65351839A6B</title>
    <g id="Web-/-Under-Construction" stroke="none" stroke-width="1" fill="none" fill-rule="evenodd">
        <g id="Wallet-popup-exchange" transform="translate(-1062.000000, -910.000000)" fill-rule="nonzero">
            <g id="noun_Wallet_4010978" transform="translate(1062.000000, 910.000000)">
                <path d="M35.1,13.6762625 L34.2,13.6762625 L34.2,6.38205721 C34.2,5.8805806 33.795,5.47028155 33.3,5.47028155 L32.4,5.47028155 L32.4,0.911403256 C32.4,0.637870558 32.283,0.382573374 32.076,0.209335999 C31.878,0.0360986236 31.608,-0.0368434291 31.347,0.0178631104 L0.783,5.47939931 C0.342,5.53410585 0,5.91705162 0,6.38205721 L0,30.0882243 C0,30.589701 0.405,31 0.9,31 L33.3,31 C33.795,31 34.2,30.589701 34.2,30.0882243 L34.2,22.7940191 L35.1,22.7940191 C35.595,22.7940191 36,22.38372 36,21.8822434 L36,14.5880381 C36,14.0865615 35.595,13.6762625 35.1,13.6762625 Z M30.6,1.99641629 L30.6,5.47028155 L11.16,5.47028155 L30.6,1.99641629 Z M32.4,29.1764487 L1.8,29.1764487 L1.8,7.29383287 L32.4,7.29383287 L32.4,13.6762625 L24.3,13.6762625 C23.805,13.6762625 23.4,14.0865615 23.4,14.5880381 L23.4,21.8822434 C23.4,22.38372 23.805,22.7940191 24.3,22.7940191 L32.4,22.7940191 L32.4,29.1764487 Z M34.2,20.9704678 L25.2,20.9704678 L25.2,15.4998138 L34.2,15.4998138 L34.2,20.9704678 Z" id="Shape" fill="#000000"></path>
                <circle id="Oval" fill="#FFFFFF" cx="28" cy="19" r="1"></circle>
            </g>
        </g>
    </g>
</svg>