<svg width="30" height="30" viewBox="0 0 30 30" fill="none" xmlns="http://www.w3.org/2000/svg">
<path d="M26 0H4C1.79086 0 0 1.79086 0 4V26C0 28.2091 1.79086 30 4 30H26C28.2091 30 30 28.2091 30 26V4C30 1.79086 28.2091 0 26 0Z" fill="#1D2333"/>
<path d="M12.5 16.7483C12.5 17.7183 13.25 18.4983 14.17 18.4983H16.05C16.85 18.4983 17.5 17.8183 17.5 16.9683C17.5 16.0583 17.1 15.7283 16.51 15.5183L13.5 14.4683C12.91 14.2583 12.51 13.9383 12.51 13.0183C12.51 12.1783 13.16 11.4883 13.96 11.4883H15.84C16.76 11.4883 17.51 12.2683 17.51 13.2383" stroke="white" stroke-width="1.5" stroke-linecap="round" stroke-linejoin="round"/>
<path d="M15 10.5V19.5" stroke="white" stroke-width="1.5" stroke-linecap="round" stroke-linejoin="round"/>
<path d="M25 15C25 20.52 20.52 25 15 25C9.48 25 5 20.52 5 15C5 9.48 9.48 5 15 5" stroke="white" stroke-width="1.5" stroke-linecap="round" stroke-linejoin="round"/>
<path d="M25 9V5H21" stroke="white" stroke-width="1.5" stroke-linecap="round" stroke-linejoin="round"/>
<path d="M20 10L25 5" stroke="white" stroke-width="1.5" stroke-linecap="round" stroke-linejoin="round"/>
</svg>
