<?xml version="1.0" encoding="UTF-8"?>
<svg width="75px" height="75px" viewBox="0 0 75 75" version="1.1" xmlns="http://www.w3.org/2000/svg" xmlns:xlink="http://www.w3.org/1999/xlink">
    <title>D4A148A9-5427-4CF7-B897-7B0661A6BBC4</title>
    <g id="Web-/-Under-Construction" stroke="none" stroke-width="1" fill="none" fill-rule="evenodd">
        <g id="Wallet" transform="translate(-2139.000000, -441.000000)">
            <g id="Group-7" transform="translate(2140.000000, 442.000000)">
                <g id="noun_Wallet_4010978" transform="translate(16.000000, 17.000000)" fill="#979797" fill-rule="nonzero">
                    <path d="M39,14.9995916 L38,14.9995916 L38,6.99959156 C38,6.44959156 37.55,5.99959156 37,5.99959156 L36,5.99959156 L36,0.999591563 C36,0.699591563 35.87,0.419591563 35.64,0.229591563 C35.42,0.0395915631 35.12,-0.0404084369 34.83,0.0195915631 L0.87,6.00959156 C0.38,6.06959156 0,6.48959156 0,6.99959156 L0,32.9995916 C0,33.5495916 0.45,33.9995916 1,33.9995916 L37,33.9995916 C37.55,33.9995916 38,33.5495916 38,32.9995916 L38,24.9995916 L39,24.9995916 C39.55,24.9995916 40,24.5495916 40,23.9995916 L40,15.9995916 C40,15.4495916 39.55,14.9995916 39,14.9995916 Z M34,2.18959156 L34,5.99959156 L12.4,5.99959156 L34,2.18959156 Z M36,31.9995916 L2,31.9995916 L2,7.99959156 L36,7.99959156 L36,14.9995916 L27,14.9995916 C26.45,14.9995916 26,15.4495916 26,15.9995916 L26,23.9995916 C26,24.5495916 26.45,24.9995916 27,24.9995916 L36,24.9995916 L36,31.9995916 Z M38,22.9995916 L28,22.9995916 L28,16.9995916 L38,16.9995916 L38,22.9995916 Z" id="Shape"></path>
                    <circle id="Oval" cx="31" cy="19.9995916" r="1"></circle>
                </g>
                <circle id="Oval" stroke="#979797" stroke-width="2" cx="36.5" cy="36.5" r="36.5"></circle>
            </g>
        </g>
    </g>
</svg>