<?xml version="1.0" encoding="UTF-8"?>
<svg width="78px" height="78px" viewBox="0 0 78 78" version="1.1" xmlns="http://www.w3.org/2000/svg" xmlns:xlink="http://www.w3.org/1999/xlink">
    <title>13F4858B-56A2-4D98-851D-358CB2CC7006</title>
    <defs>
        <linearGradient x1="50%" y1="0%" x2="50%" y2="100%" id="linearGradient-1">
            <stop stop-color="#383AB5" offset="0%"></stop>
            <stop stop-color="#2C1D6A" offset="100%"></stop>
        </linearGradient>
    </defs>
    <g id="Web-/-Under-Construction" stroke="none" stroke-width="1" fill="none" fill-rule="evenodd">
        <g id="Wallet-Copy" transform="translate(-2133.000000, -47.000000)">
            <g id="Group-16-Copy" transform="translate(2133.000000, 47.000000)">
                <circle id="Oval-Copy-2" fill="url(#linearGradient-1)" cx="39" cy="39" r="39"></circle>
                <g id="Group-15" transform="translate(39.593652, 37.518204) rotate(12.000000) translate(-39.593652, -37.518204) translate(23.093652, 7.427381)" fill="#FFFFFF">
                    <path d="M23.134142,28.3764797 C29.4962634,32.4732775 33,35.8898179 33,42.6183936 C33,50.3426895 26.4708865,55.7149697 16.0145145,55.7149697 C5.1817132,55.7149697 1.83660054e-12,49.0344274 1.83660054e-12,44.46833 C1.83660054e-12,40.3523838 12.4187619,38.0944877 12.118238,40.7291866 C10.4377828,45.8700625 12.4026513,50.4679659 16.8841749,50.4601767 C20.158336,50.4546593 21.82361,48.10167 21.8539722,44.6753931 C21.900445,39.4063198 18.2337439,38.0516471 10.5195749,32.9597783 C3.36369867,28.236274 1.8189894e-12,24.5581461 1.8189894e-12,18.5159942 C1.8189894e-12,10.3318106 7.15649586,5.44830304 16.8603188,5.44830304 C25.2031095,5.44830304 32.667255,9.68238555 32.7462587,15.5434384 C32.8026457,19.742145 20.4508046,22.4855682 21.1088589,19.3312644 C22.2880279,15.1997397 21.7458456,10.1692109 16.6896089,10.237691 C13.3807481,10.2828035 11.2507464,12.7659374 11.2826577,16.0182555 C11.338425,21.7313134 16.5043375,24.1083194 23.134142,28.3764797 Z" id="logo" fill-rule="nonzero"></path>
                    <rect id="Rectangle" x="8.56656302" y="0.218391202" width="4.85294118" height="10.6333333" rx="0.8960922"></rect>
                    <rect id="Rectangle-Copy-27" x="19.0080688" y="7.27595761e-12" width="4.85294118" height="10.6333333" rx="0.8960922"></rect>
                    <rect id="Rectangle-Copy-28" x="8.94818101" y="51.4816456" width="4.85294118" height="8.7" rx="0.96354"></rect>
                    <rect id="Rectangle-Copy-33" x="19.3896868" y="51.2632544" width="4.85294118" height="8.7" rx="0.96354"></rect>
                </g>
            </g>
        </g>
    </g>
</svg>