<svg width="30" height="30" viewBox="0 0 30 30" fill="none" xmlns="http://www.w3.org/2000/svg">
<path d="M26 0H4C1.79086 0 0 1.79086 0 4V26C0 28.2091 1.79086 30 4 30H26C28.2091 30 30 28.2091 30 26V4C30 1.79086 28.2091 0 26 0Z" fill="#1D2333"/>
<path d="M20.9981 10.16C20.9381 10.15 20.8681 10.15 20.8081 10.16C19.4281 10.11 18.3281 8.98 18.3281 7.58C18.3281 6.15 19.4781 5 20.9081 5C22.3381 5 23.4881 6.16 23.4881 7.58C23.4781 8.98 22.3781 10.11 20.9981 10.16Z" stroke="white" stroke-width="1.5" stroke-linecap="round" stroke-linejoin="round"/>
<path d="M19.9675 17.4402C21.3375 17.6702 22.8475 17.4302 23.9075 16.7202C25.3175 15.7802 25.3175 14.2402 23.9075 13.3002C22.8375 12.5902 21.3075 12.3502 19.9375 12.5902" stroke="white" stroke-width="1.5" stroke-linecap="round" stroke-linejoin="round"/>
<path d="M8.97047 10.16C9.03047 10.15 9.10047 10.15 9.16047 10.16C10.5405 10.11 11.6405 8.98 11.6405 7.58C11.6405 6.15 10.4905 5 9.06047 5C7.63047 5 6.48047 6.16 6.48047 7.58C6.49047 8.98 7.59047 10.11 8.97047 10.16Z" stroke="white" stroke-width="1.5" stroke-linecap="round" stroke-linejoin="round"/>
<path d="M10.0014 17.4402C8.6314 17.6702 7.12141 17.4302 6.06141 16.7202C4.65141 15.7802 4.65141 14.2402 6.06141 13.3002C7.13141 12.5902 8.6614 12.3502 10.0314 12.5902" stroke="white" stroke-width="1.5" stroke-linecap="round" stroke-linejoin="round"/>
<path d="M14.9981 17.6288C14.9381 17.6188 14.8681 17.6188 14.8081 17.6288C13.4281 17.5788 12.3281 16.4488 12.3281 15.0488C12.3281 13.6188 13.4781 12.4688 14.9081 12.4688C16.3381 12.4688 17.4881 13.6288 17.4881 15.0488C17.4781 16.4488 16.3781 17.5888 14.9981 17.6288Z" stroke="white" stroke-width="1.5" stroke-linecap="round" stroke-linejoin="round"/>
<path d="M12.0888 20.7794C10.6788 21.7194 10.6788 23.2594 12.0888 24.1994C13.6888 25.2694 16.3087 25.2694 17.9087 24.1994C19.3187 23.2594 19.3187 21.7194 17.9087 20.7794C16.3187 19.7194 13.6888 19.7194 12.0888 20.7794Z" stroke="white" stroke-width="1.5" stroke-linecap="round" stroke-linejoin="round"/>
</svg>
