<svg width="30" height="30" viewBox="0 0 30 30" fill="none" xmlns="http://www.w3.org/2000/svg">
<path d="M26 0H4C1.79086 0 0 1.79086 0 4V26C0 28.2091 1.79086 30 4 30H26C28.2091 30 30 28.2091 30 26V4C30 1.79086 28.2091 0 26 0Z" fill="#E7E9ED"/>
<path d="M21.0001 10.16C20.9401 10.15 20.8701 10.15 20.8101 10.16C19.4301 10.11 18.3301 8.98 18.3301 7.58C18.3301 6.15 19.4801 5 20.9101 5C22.3401 5 23.4901 6.16 23.4901 7.58C23.4801 8.98 22.3801 10.11 21.0001 10.16Z" stroke="#A9ADBD" stroke-width="1.5" stroke-linecap="round" stroke-linejoin="round"/>
<path d="M19.9695 17.4402C21.3395 17.6702 22.8495 17.4302 23.9095 16.7202C25.3195 15.7802 25.3195 14.2402 23.9095 13.3002C22.8395 12.5902 21.3095 12.3502 19.9395 12.5902" stroke="#A9ADBD" stroke-width="1.5" stroke-linecap="round" stroke-linejoin="round"/>
<path d="M8.96852 10.16C9.02852 10.15 9.09852 10.15 9.15852 10.16C10.5385 10.11 11.6385 8.98 11.6385 7.58C11.6385 6.15 10.4885 5 9.05852 5C7.62852 5 6.47852 6.16 6.47852 7.58C6.48852 8.98 7.58852 10.11 8.96852 10.16Z" stroke="#A9ADBD" stroke-width="1.5" stroke-linecap="round" stroke-linejoin="round"/>
<path d="M9.99945 17.4402C8.62945 17.6702 7.11945 17.4302 6.05945 16.7202C4.64945 15.7802 4.64945 14.2402 6.05945 13.3002C7.12945 12.5902 8.65945 12.3502 10.0295 12.5902" stroke="#A9ADBD" stroke-width="1.5" stroke-linecap="round" stroke-linejoin="round"/>
<path d="M15.0001 17.6288C14.9401 17.6188 14.8701 17.6188 14.8101 17.6288C13.4301 17.5788 12.3301 16.4488 12.3301 15.0488C12.3301 13.6188 13.4801 12.4688 14.9101 12.4688C16.3401 12.4688 17.4901 13.6288 17.4901 15.0488C17.4801 16.4488 16.3801 17.5888 15.0001 17.6288Z" stroke="#A9ADBD" stroke-width="1.5" stroke-linecap="round" stroke-linejoin="round"/>
<path d="M12.0907 20.7784C10.6807 21.7184 10.6807 23.2584 12.0907 24.1984C13.6907 25.2684 16.3107 25.2684 17.9107 24.1984C19.3207 23.2584 19.3207 21.7184 17.9107 20.7784C16.3207 19.7184 13.6907 19.7184 12.0907 20.7784Z" stroke="#A9ADBD" stroke-width="1.5" stroke-linecap="round" stroke-linejoin="round"/>
</svg>
