<svg width="30" height="30" viewBox="0 0 30 30" fill="none" xmlns="http://www.w3.org/2000/svg">
<path d="M26 0H4C1.79086 0 0 1.79086 0 4V26C0 28.2091 1.79086 30 4 30H26C28.2091 30 30 28.2091 30 26V4C30 1.79086 28.2091 0 26 0Z" fill="#1D2333"/>
<path d="M21.0001 10.16C20.9401 10.15 20.8701 10.15 20.8101 10.16C19.4301 10.11 18.3301 8.98 18.3301 7.58C18.3301 6.15 19.4801 5 20.9101 5C22.3401 5 23.4901 6.16 23.4901 7.58C23.4801 8.98 22.3801 10.11 21.0001 10.16Z" stroke="#A8ABC1" stroke-width="1.5" stroke-linecap="round" stroke-linejoin="round"/>
<path d="M19.9699 17.4399C21.3399 17.6699 22.8499 17.4299 23.9099 16.7199C25.3199 15.7799 25.3199 14.2399 23.9099 13.2999C22.8399 12.5899 21.3099 12.3499 19.9399 12.5899" stroke="#A8ABC1" stroke-width="1.5" stroke-linecap="round" stroke-linejoin="round"/>
<path d="M8.96998 10.16C9.02998 10.15 9.09998 10.15 9.15998 10.16C10.54 10.11 11.64 8.98 11.64 7.58C11.64 6.15 10.49 5 9.05998 5C7.62998 5 6.47998 6.16 6.47998 7.58C6.48998 8.98 7.58998 10.11 8.96998 10.16Z" stroke="#A8ABC1" stroke-width="1.5" stroke-linecap="round" stroke-linejoin="round"/>
<path d="M9.99994 17.4399C8.62994 17.6699 7.11994 17.4299 6.05994 16.7199C4.64994 15.7799 4.64994 14.2399 6.05994 13.2999C7.12994 12.5899 8.65994 12.3499 10.0299 12.5899" stroke="#A8ABC1" stroke-width="1.5" stroke-linecap="round" stroke-linejoin="round"/>
<path d="M14.9996 17.6288C14.9396 17.6188 14.8696 17.6188 14.8096 17.6288C13.4296 17.5788 12.3296 16.4488 12.3296 15.0488C12.3296 13.6188 13.4796 12.4688 14.9096 12.4688C16.3396 12.4688 17.4896 13.6288 17.4896 15.0488C17.4796 16.4488 16.3796 17.5888 14.9996 17.6288Z" stroke="#A8ABC1" stroke-width="1.5" stroke-linecap="round" stroke-linejoin="round"/>
<path d="M12.0897 20.7786C10.6797 21.7186 10.6797 23.2586 12.0897 24.1986C13.6897 25.2686 16.3097 25.2686 17.9097 24.1986C19.3197 23.2586 19.3197 21.7186 17.9097 20.7786C16.3197 19.7186 13.6897 19.7186 12.0897 20.7786Z" stroke="#A8ABC1" stroke-width="1.5" stroke-linecap="round" stroke-linejoin="round"/>
</svg>
