<svg width="30" height="30" viewBox="0 0 30 30" fill="none" xmlns="http://www.w3.org/2000/svg">
<path d="M26 0H4C1.79086 0 0 1.79086 0 4V26C0 28.2091 1.79086 30 4 30H26C28.2091 30 30 28.2091 30 26V4C30 1.79086 28.2091 0 26 0Z" fill="#E7E9ED"/>
<path d="M15 18C16.6569 18 18 16.6569 18 15C18 13.3431 16.6569 12 15 12C13.3431 12 12 13.3431 12 15C12 16.6569 13.3431 18 15 18Z" stroke="#A9ADBD" stroke-width="1.5" stroke-miterlimit="10" stroke-linecap="round" stroke-linejoin="round"/>
<path d="M5 15.8814V14.1214C5 13.0814 5.85 12.2214 6.9 12.2214C8.71 12.2214 9.45 10.9414 8.54 9.3714C8.02 8.4714 8.33 7.3014 9.24 6.7814L10.97 5.7914C11.76 5.3214 12.78 5.6014 13.25 6.3914L13.36 6.5814C14.26 8.1514 15.74 8.1514 16.65 6.5814L16.76 6.3914C17.23 5.6014 18.25 5.3214 19.04 5.7914L20.77 6.7814C21.68 7.3014 21.99 8.4714 21.47 9.3714C20.56 10.9414 21.3 12.2214 23.11 12.2214C24.15 12.2214 25.01 13.0714 25.01 14.1214V15.8814C25.01 16.9214 24.16 17.7814 23.11 17.7814C21.3 17.7814 20.56 19.0614 21.47 20.6314C21.99 21.5414 21.68 22.7014 20.77 23.2214L19.04 24.2114C18.25 24.6814 17.23 24.4014 16.76 23.6114L16.65 23.4214C15.75 21.8514 14.27 21.8514 13.36 23.4214L13.25 23.6114C12.78 24.4014 11.76 24.6814 10.97 24.2114L9.24 23.2214C8.33 22.7014 8.02 21.5314 8.54 20.6314C9.45 19.0614 8.71 17.7814 6.9 17.7814C5.85 17.7814 5 16.9214 5 15.8814Z" stroke="#A9ADBD" stroke-width="1.5" stroke-miterlimit="10" stroke-linecap="round" stroke-linejoin="round"/>
</svg>
