<svg width="30" height="30" viewBox="0 0 30 30" fill="none" xmlns="http://www.w3.org/2000/svg">
<path d="M26 0H4C1.79086 0 0 1.79086 0 4V26C0 28.2091 1.79086 30 4 30H26C28.2091 30 30 28.2091 30 26V4C30 1.79086 28.2091 0 26 0Z" fill="#1D2333"/>
<path d="M5 5H6.74001C7.82001 5 8.67 5.93 8.58 7L7.75 16.96C7.61 18.59 8.89999 19.99 10.54 19.99H21.19C22.63 19.99 23.89 18.81 24 17.38L24.54 9.88C24.66 8.22 23.4 6.87 21.73 6.87H8.82001" stroke="#A8ABC1" stroke-width="1.5" stroke-miterlimit="10" stroke-linecap="round" stroke-linejoin="round"/>
<path d="M19.25 25C19.9404 25 20.5 24.4404 20.5 23.75C20.5 23.0596 19.9404 22.5 19.25 22.5C18.5596 22.5 18 23.0596 18 23.75C18 24.4404 18.5596 25 19.25 25Z" stroke="#A8ABC1" stroke-width="1.5" stroke-miterlimit="10" stroke-linecap="round" stroke-linejoin="round"/>
<path d="M11.25 25C11.9404 25 12.5 24.4404 12.5 23.75C12.5 23.0596 11.9404 22.5 11.25 22.5C10.5596 22.5 10 23.0596 10 23.75C10 24.4404 10.5596 25 11.25 25Z" stroke="#A8ABC1" stroke-width="1.5" stroke-miterlimit="10" stroke-linecap="round" stroke-linejoin="round"/>
<path d="M12 11H24" stroke="#A8ABC1" stroke-width="1.5" stroke-miterlimit="10" stroke-linecap="round" stroke-linejoin="round"/>
</svg>
