<?xml version="1.0" encoding="UTF-8"?>
<svg width="434px" height="170px" viewBox="0 0 434 170" version="1.1" xmlns="http://www.w3.org/2000/svg" xmlns:xlink="http://www.w3.org/1999/xlink">
    <title>9F989D77-148D-4C22-90F4-66A7F2AD1B77</title>
    <g id="Web-/-Under-Construction" stroke="none" stroke-width="1" fill="none" fill-rule="evenodd">
        <g id="Slamcoin-login" transform="translate(-1250.000000, -544.000000)">
            <g id="Group-3" transform="translate(1015.000000, 402.000000)">
                <g id="Group-54" transform="translate(235.000000, 142.000000)">
                    <path d="M433.895978,163.170919 L414.614457,169.58656 L394.593232,160.854944 C394.593232,160.854944 389.581704,152.550147 389.604387,146.670812 C389.640371,137.405909 389.683377,102.790352 389.683377,102.790352 L380.827692,93.7596098 L371.620061,103.212939 L371.620354,165.952381 L368.272923,169.425462 L344.435419,169.474855 L341.604935,165.597481 L341.55637,103.186413 L332.629593,93.7586951 L323.586965,103.747118 L323.607151,165.533565 L322.352961,169.604854 L300.201461,169.604854 L293.682132,163.90633 L275.248439,169.763095 C275.248439,169.763095 254.906693,162.438251 253.721839,161.210736 C251.503926,163.231717 245.075047,167.144639 245.075047,167.144639 L232.328645,170 L217.698055,166.673127 L208.635957,159.519473 L186.065808,169.802427 C186.065808,169.802427 158.00847,145.924424 158.007592,143.755692 C158.003204,130.404866 157.963965,22.2619048 157.963965,22.2619048 L187.990794,34.6276092 L188.03091,144.652089 L196.953299,154.424646 L203.606033,151.01102 L200.261235,131.513471 L202.015162,113.009407 L209.532759,94.906702 L228.852193,80.7543052 L259.190598,77.7205072 L265.786284,84.5944083 L245.100384,94.9969247 L232.987414,111.692537 L230.311761,127.519017 L231.301349,142.092298 L241.58367,154.42739 C241.58367,154.42739 249.15357,149.624348 249.15357,149.177065 C249.182533,143.40811 249.441735,103.892392 249.441735,103.892392 L279.474708,90.0595238 L279.474708,148.75 L288.04135,154.428304 L293.586466,152.203776 L293.565402,80.6264798 L322.054078,82.8825598 L323.687019,86.3094535 L347.193641,76.7783757 L369.21788,87.2113386 L392.871073,76.7783757 L414.633236,90.4868823 L419.668078,99.6520478 L419.658423,145.300605 L422.035344,150.040112 L428.406155,154.20329 L434,153.527132 L433.895978,163.170919 Z" id="logo" fill="#000000" fill-rule="nonzero"></path>
                    <polyline id="Path-7" points="124.795752 10.4524362 103.467241 28.2916115 51.8534436 23.9679335 43.346004 81.0084564 127.012479 68.1975585 83.9959884 149.066351 31.9028986 117.423434 0 154.222738"></polyline>
                    <polyline id="Path-10" points="101.020085 14.7911833 103.60089 27.9195262 101.020085 57.587007"></polyline>
                    <polyline id="Path-11" fill="#6870EE" points="71.5251695 0 51.6420656 24.2857143 21.9368432 16.8956948"></polyline>
                    <polygon id="Path-12" fill="#3E34D2" points="2.39646187 65.2784223 43.377496 81.2257355 50.141356 104.12993"></polygon>
                    <line x1="127.012479" y1="68.2366589" x2="92.9089831" y2="105.707657" id="Path-13"></line>
                    <polyline id="Path-14" points="143.787712 112.807425 84.2448518 149.104385 114.091047 157.969838"></polyline>
                    <line x1="84.2448518" y1="149.095128" x2="54.0125636" y2="170" id="Path-15"></line>
                    <line x1="21.9368432" y1="147.517401" x2="31.8913771" y2="117.737819" id="Path-16"></line>
                    <line x1="43.3206568" y1="81.2529002" x2="66.916589" y2="59.9535963" id="Path-17"></line>
                    <polygon id="Path-18" fill="#757CF0" points="21.8639258 16.9605568 51.8004449 24.131351 43.3656186 81.2529002 2.39646187 65.260314"></polygon>
                    <polygon id="Path-19" fill="#3D33D2" points="51.6161017 24.0961822 103.416547 28.3990719 101.258952 15.1785714 71.3449553 0"></polygon>
                    <polygon id="Path-20" fill="#453ED7" points="100.835742 15.2323518 124.80036 10.4524362 103.284131 28.3333333"></polygon>
                    <polygon id="Path-21" fill="#3020C8" points="103.284131 28.3333333 124.80036 10.4524362 100.835742 57.9814385"></polygon>
                    <polygon id="Path-22" fill="#AEB3F6" points="103.416547 28.3541367 100.816147 57.9814385 69.0733421 44.3744828 51.6161017 24.0603248"></polygon>
                    <polygon id="Path-23" fill="#9DA2F4" points="51.755973 24.0603248 69.1287077 44.2394729 67.0807395 59.8626009 43.3206568 81.0556845"></polygon>
                    <polygon id="Path-24" fill="#433BD6" points="43.3206568 81.0556845 67.0827817 59.5591647 127.012479 68.183517"></polygon>
                    <polygon id="Path-25" fill="#A2A7F5" points="43.3206568 81.0838581 127.012479 68.2366589 126.819081 68.4491752 126.33258 68.9837703 93.1582359 106.25 50.1444505 103.994697"></polygon>
                    <polygon id="Path-26" fill="#433BD6" points="126.947307 68.2366589 143.787712 112.894625 84.0449302 149.761905"></polygon>
                    <polygon id="Path-27" fill="#9499F3" points="127.012479 68.2366589 93.0094954 105.750632 80.7423306 127.374826 84.0449302 149.761905"></polygon>
                    <polygon id="Path-28" fill="#757CF0" points="84.2448518 149.272403 143.787712 113.00464 112.397437 170"></polygon>
                    <polygon id="Path-29" fill="#4640D8" points="112.397437 170 84.3030494 149.095128 53.8282204 170"></polygon>
                    <polygon id="Path-30" fill="#A2A7F5" points="53.8129948 170 84.2448518 149.15228 31.3902751 116.369048 25.1530101 136.864952 21.9368432 147.433406"></polygon>
                    <polygon id="Path-31" fill="#757CF0" points="22.2769695 147.738095 31.8913771 117.343387 0 154.222738"></polygon>
                    <polygon id="Path-32" fill="#4640D8" points="0 154.419954 24.9441476 99.199536 31.8913771 117.53143"></polygon>
                    <polygon id="Path-33" fill="#878EF2" points="24.8863348 99.199536 81.0071617 127.5 84.2448518 149.292343 31.8165169 117.581231"></polygon>
                </g>
            </g>
        </g>
    </g>
</svg>