<svg width="34" height="34" viewBox="0 0 34 34" fill="none" xmlns="http://www.w3.org/2000/svg">
<path d="M17.0003 26.2083C22.0859 26.2083 26.2087 22.0856 26.2087 17C26.2087 11.9143 22.0859 7.79163 17.0003 7.79163C11.9147 7.79163 7.79199 11.9143 7.79199 17C7.79199 22.0856 11.9147 26.2083 17.0003 26.2083Z" stroke="#A8ABC1" stroke-width="1.5" stroke-linecap="round" stroke-linejoin="round"/>
<path d="M27.1147 27.115L26.9305 26.9309M26.9305 7.06921L27.1147 6.88504L26.9305 7.06921ZM6.88467 27.115L7.06884 26.9309L6.88467 27.115ZM16.9997 2.94671V2.83337V2.94671ZM16.9997 31.1667V31.0534V31.1667ZM2.94634 17H2.83301H2.94634ZM31.1663 17H31.053H31.1663ZM7.06884 7.06921L6.88467 6.88504L7.06884 7.06921Z" stroke="#A8ABC1" stroke-width="2" stroke-linecap="round" stroke-linejoin="round"/>
</svg>
