<?xml version="1.0" encoding="UTF-8"?>
<svg width="77px" height="75px" viewBox="0 0 77 75" version="1.1" xmlns="http://www.w3.org/2000/svg" xmlns:xlink="http://www.w3.org/1999/xlink">
    <title>BAF1A987-124F-4960-AF1E-C7FF3B5B837C</title>
    <g id="Web-/-Under-Construction" stroke="none" stroke-width="1" fill="none" fill-rule="evenodd">
        <g id="Wallet" transform="translate(-2139.000000, -659.000000)">
            <g id="Group-8" transform="translate(2140.000000, 660.000000)">
                <g id="noun_incoming_3030600" transform="translate(35.500000, 36.000000) scale(1, -1) translate(-35.500000, -36.000000) translate(19.000000, 19.000000)" fill="#979797" fill-rule="nonzero">
                    <polygon id="Path" points="15.3576869 0 15.3576869 11.2150008 9 11.2150008 16 18 23 11.2150008 16.6423131 11.2150008 16.6423131 0"></polygon>
                    <path d="M31.625,22.96 L19,22.96 L1.375,22.96 L1.375,11 L0,11 L0,33.2892233 C0.0123413842,33.6800891 0.327791933,33.9926412 0.717368056,34 L32.2826319,34 C32.6722081,33.9926412 32.9876586,33.6800891 33,33.2892233 L33,11 L31.625,11 L31.625,22.96 Z" id="Path"></path>
                </g>
                <circle id="Oval-Copy" stroke="#979797" stroke-width="2" cx="36.5" cy="36.5" r="36.5"></circle>
                <g id="Check_green_circle" transform="translate(53.000000, 50.000000)" fill-rule="nonzero">
                    <circle id="circle4640" fill="#55D400" cx="11.5" cy="11.5" r="11.5"></circle>
                    <path d="M18.7458802,8.24211292 L17.5177159,7.21192836 C17.3494408,7.07037003 17.1440964,7 16.9036338,7 C16.6626833,7 16.4578267,7.07077916 16.2895516,7.21192836 L10.3643173,12.18979 L7.70898512,9.95472316 C7.54022228,9.81316483 7.33536564,9.7427948 7.09490297,9.7427948 C6.85395255,9.7427948 6.64909591,9.81357396 6.48082082,9.95472316 L5.25265652,10.9849077 C5.08389367,11.126466 5,11.2982998 5,11.5 C5,11.7021093 5.08438142,11.8739431 5.25265652,12.0150923 L8.52255862,14.7578871 L9.75121067,15.7880716 C9.91948577,15.92963 10.1243424,16 10.3652928,16 C10.6062432,16 10.8110999,15.9292208 10.979375,15.7880716 L12.208027,14.7578871 L18.7473435,9.27270661 C18.9156186,9.13114829 19,8.95931448 19,8.75761433 C19,8.55550505 18.9156186,8.38367124 18.7473435,8.24252205" id="path4642" fill="#FFFFFF"></path>
                </g>
            </g>
        </g>
    </g>
</svg>