<?xml version="1.0" encoding="UTF-8"?>
<svg width="78px" height="78px" viewBox="0 0 78 78" version="1.1" xmlns="http://www.w3.org/2000/svg" xmlns:xlink="http://www.w3.org/1999/xlink">
    <title>FC40C027-78AF-4F13-874B-F496D21381DA</title>
    <g id="Web-/-Under-Construction" stroke="none" stroke-width="1" fill="none" fill-rule="evenodd">
        <g id="Wallet" transform="translate(-475.000000, -1489.000000)" fill-rule="nonzero">
            <g id="tether-1" transform="translate(475.000000, 1489.000000)">
                <path d="M39,0 C60.5366667,0 78,17.4633333 78,39 C78,60.5366667 60.5366667,78 39,78 C17.4633333,78 0,60.5475 0,39 C0,17.4525 17.4633333,0 39,0 Z" id="path0_fill" fill="#26A17B"></path>
                <g id="Vector_1_" transform="translate(16.000000, 20.000000)" fill="#FFFFFF">
                    <path d="M28.8702814,14.4437267 L28.8702814,8.71751553 L42.3225806,8.71751553 L42.3225806,0 L5.69938229,0 L5.69938229,8.71751553 L19.1516815,8.71751553 L19.1516815,14.4437267 C8.22512011,14.9351553 0,17.0397516 0,19.5609938 C0,22.082236 8.22512011,24.1868323 19.1516815,24.6782609 L19.1516815,43 L28.8812629,43 L28.8812629,24.6782609 C39.7968428,24.1868323 48,22.082236 48,19.5609938 C47.9890185,17.0397516 39.7858614,14.9351553 28.8702814,14.4437267 Z M28.8812629,23.1291925 C28.6067261,23.1398758 27.2010981,23.2253416 24.0603981,23.2253416 C21.5456417,23.2253416 19.7886067,23.1612422 19.162663,23.1291925 L19.162663,23.1398758 C9.50995196,22.7232298 2.29512697,21.0886957 2.29512697,19.1336646 C2.29512697,17.1786335 9.49897049,15.5440994 19.162663,15.1274534 L19.162663,21.4946584 C19.7995882,21.5373913 21.6005491,21.6442236 24.104324,21.6442236 C27.1022649,21.6442236 28.6067261,21.5267081 28.8922443,21.4946584 L28.8922443,15.106087 C38.5339739,15.5227329 45.726836,17.1572671 45.726836,19.1122981 C45.704873,21.0673292 38.512011,22.7018634 28.8812629,23.1291925" id="path1_fill"></path>
                </g>
            </g>
        </g>
    </g>
</svg>