<svg width="22" height="15" viewBox="0 0 22 15" fill="none" xmlns="http://www.w3.org/2000/svg">
<path d="M21.8602 6.58308C21.6636 6.31423 16.9808 0 10.9999 0C5.01902 0 0.33593 6.31423 0.139606 6.58283C-0.0465353 6.83789 -0.0465353 7.18383 0.139606 7.43889C0.33593 7.70775 5.01902 14.022 10.9999 14.022C16.9808 14.022 21.6636 7.70771 21.8602 7.43911C22.0466 7.18409 22.0466 6.83789 21.8602 6.58308ZM10.9999 12.5714C6.59434 12.5714 2.77867 8.38056 1.64914 7.01049C2.77721 5.63923 6.58489 1.45054 10.9999 1.45054C15.4052 1.45054 19.2206 5.64069 20.3506 7.01148C19.2226 8.3827 15.4149 12.5714 10.9999 12.5714Z" fill="#A9ADBD"/>
<path d="M11.0001 2.66016C8.60064 2.66016 6.64844 4.61236 6.64844 7.01183C6.64844 9.41129 8.60064 11.3635 11.0001 11.3635C13.3996 11.3635 15.3518 9.41129 15.3518 7.01183C15.3518 4.61236 13.3996 2.66016 11.0001 2.66016ZM11.0001 9.91291C9.40037 9.91291 8.09902 8.61151 8.09902 7.01183C8.09902 5.41214 9.40042 4.11074 11.0001 4.11074C12.5998 4.11074 13.9012 5.41214 13.9012 7.01183C13.9012 8.61151 12.5998 9.91291 11.0001 9.91291Z" fill="#A9ADBD"/>
</svg>
