<svg width="66" height="66" viewBox="0 0 66 66" fill="none" xmlns="http://www.w3.org/2000/svg">
<path d="M24.75 60.5H41.25C55 60.5 60.5 55 60.5 41.25V24.75C60.5 11 55 5.5 41.25 5.5H24.75C11 5.5 5.5 11 5.5 24.75V41.25C5.5 55 11 60.5 24.75 60.5Z" stroke="#A9ADBD" stroke-width="4.125" stroke-linecap="round" stroke-linejoin="round"/>
<path d="M24.75 27.5C27.7876 27.5 30.25 25.0376 30.25 22C30.25 18.9624 27.7876 16.5 24.75 16.5C21.7124 16.5 19.25 18.9624 19.25 22C19.25 25.0376 21.7124 27.5 24.75 27.5Z" stroke="#A9ADBD" stroke-width="4.125" stroke-linecap="round" stroke-linejoin="round"/>
<path d="M7.34229 52.1135L20.8998 43.011C23.0723 41.5535 26.2073 41.7185 28.1598 43.396L29.0673 44.1935C31.2123 46.036 34.6773 46.036 36.8223 44.1935L48.2623 34.376C50.4073 32.5335 53.8723 32.5335 56.0173 34.376L60.4998 38.226" stroke="#A9ADBD" stroke-width="4.125" stroke-linecap="round" stroke-linejoin="round"/>
</svg>
