<?xml version="1.0" encoding="UTF-8"?>
<svg width="27px" height="35px" viewBox="0 0 27 35" version="1.1" xmlns="http://www.w3.org/2000/svg" xmlns:xlink="http://www.w3.org/1999/xlink">
    <title>0FA87542-C160-47DA-8163-60A2956F2BB7</title>
    <g id="Web-/-Under-Construction" stroke="none" stroke-width="1" fill="none" fill-rule="evenodd">
        <g id="Wallet-settings-updated" transform="translate(-1040.000000, -1072.000000)" fill="#FFFFFF" fill-rule="nonzero" stroke="#000000" stroke-width="1.43">
            <g id="Group-16-Copy" transform="translate(1041.372063, 1073.552033)">
                <g id="Group-15" transform="translate(12.307122, 16.158301) rotate(12.000000) translate(-12.307122, -16.158301) translate(2.807122, 1.658301)">
                    <path d="M13.3196575,13.2277942 C16.9826971,15.5913314 19,17.5624124 19,21.444283 C19,25.9006076 15.2408134,29 9.22047806,29 C2.98341063,29 -3.62783906e-12,25.145841 -3.62783906e-12,22.511554 C-3.62783906e-12,20.1369697 7.15019622,18.8343373 6.97716732,20.3543559 C6.00963254,23.3202459 7.14092044,25.9728824 9.72119158,25.9683886 C11.6063147,25.9652055 12.5651088,24.6077117 12.5825901,22.6310135 C12.6093471,19.5911635 10.4982162,18.8096216 6.05672494,15.872005 C1.93667499,13.1469063 -3.63797881e-12,11.0249094 -3.63797881e-12,7.53905256 C-3.63797881e-12,2.8174082 4.12040671,0 9.7074563,0 C14.5108812,0 18.8084196,2.44273991 18.8539065,5.82411658 C18.8863717,8.24644727 11.7747057,9.82919144 12.1535854,8.00940077 C12.8325009,5.62582886 12.5203354,2.7236007 9.60916875,2.76310845 C7.70406707,2.78913488 6.47770246,4.22171215 6.49607563,6.09804947 C6.52818409,9.39404446 9.50249732,10.7653941 13.3196575,13.2277942 Z" id="logo"></path>
                </g>
            </g>
        </g>
    </g>
</svg>